<?xml version="1.0" standalone="no"?>
<!DOCTYPE svg PUBLIC "-//W3C//DTD SVG 20010904//EN"
 "http://www.w3.org/TR/2001/REC-SVG-20010904/DTD/svg10.dtd">
<svg version="1.0" xmlns="http://www.w3.org/2000/svg"
 width="304.000000pt" height="304.000000pt" viewBox="0 0 304.000000 304.000000"
 preserveAspectRatio="xMidYMid meet">
<metadata>
Created by potrace 1.11, written by Peter Selinger 2001-2013
</metadata>
<g transform="translate(0.000000,304.000000) scale(0.100000,-0.100000)"
fill="#000000" stroke="none">
<path d="M250 1770 l0 -385 255 -255 255 -255 253 253 253 253 249 -251 c138
-137 253 -250 257 -250 4 0 118 110 253 245 135 135 250 245 255 245 6 0 122
-111 258 -247 l247 -248 3 384 2 385 -255 255 -255 255 -247 -247 c-137 -136
-251 -249 -255 -253 -3 -3 -120 108 -258 246 l-253 252 -253 -253 -254 -254
-255 255 -255 255 0 -385z"/>
</g>
</svg>
